<?xml version="1.0" encoding="iso-8859-1"?>
<!-- Generator: Adobe Illustrator 18.0.0, SVG Export Plug-In . SVG Version: 6.00 Build 0)  -->
<!DOCTYPE svg PUBLIC "-//W3C//DTD SVG 1.1//EN" "http://www.w3.org/Graphics/SVG/1.1/DTD/svg11.dtd">
<svg version="1.1" id="Capa_1" xmlns="http://www.w3.org/2000/svg" xmlns:xlink="http://www.w3.org/1999/xlink" x="0px" y="0px"
	 viewBox="0 0 429.677 429.677" style="enable-background:new 0 0 429.677 429.677;" xml:space="preserve">
<path d="M374.198,107.508c-1.897-0.761-4.068-0.286-5.479,1.197l-44.127,46.398h-10.54L359.4,37.949
	c0.487-1.259,0.444-2.662-0.118-3.89c-0.563-1.228-1.599-2.175-2.871-2.627l-21.817-7.75c-1.272-0.45-2.672-0.37-3.884,0.227
	c-1.211,0.597-2.129,1.658-2.546,2.942l-41.613,128.252h-6.517l33.667-144.337c0.307-1.314,0.068-2.698-0.66-3.835
	s-1.887-1.93-3.209-2.2l-22.688-4.63c-1.326-0.271-2.699,0.006-3.814,0.767c-1.116,0.761-1.877,1.939-2.11,3.27l-25.136,143.394
	c-13.293-4.188-27.14-6.308-41.246-6.308c-21.122,0-41.356,4.678-60.166,13.88h-49.587l-44.126-46.398
	c-1.409-1.482-3.579-1.958-5.479-1.197c-1.899,0.759-3.145,2.598-3.145,4.643v84.333c0,1.055,0.334,2.083,0.953,2.937l44.841,61.782
	l19.422,164.063c0.299,2.517,2.432,4.412,4.966,4.412h184.645c2.534,0,4.667-1.896,4.966-4.412L331.549,261.2l44.841-61.781
	c0.619-0.854,0.953-1.882,0.953-2.937V112.15C377.343,110.105,376.098,108.266,374.198,107.508z M330.918,50.766l9.891,7.511
	l-2.902,7.497l-9.514-7.226L330.918,50.766z M334.151,75.477l-44.631,115.3c-1.073-0.815-2.157-1.614-3.254-2.395l38.859-119.762
	L334.151,75.477z M321.735,209.425v16.635c-6.764-10.725-14.878-20.338-24.084-28.585l4.479-11.57
	C309.594,192.942,316.169,200.823,321.735,209.425z M290.374,239.198c3.648,4.706,7.013,9.752,10.054,15.115H225.67
	c8.65-5.819,18.365-10.071,29.027-12.685C266.015,238.845,278.01,238.044,290.374,239.198z M252.312,231.916
	c-16.392,4.018-30.792,11.555-42.846,22.396h-19.694c1.901-2.226,3.884-4.389,5.957-6.462c13.151-13.142,28.89-22.555,46.78-27.979
	c7.362-2.238,14.991-3.745,22.7-4.506c5.674,3.843,11.028,8.308,15.995,13.339C271.274,228.577,261.594,229.635,252.312,231.916z
	 M239.604,210.302c-19.478,5.906-36.617,16.159-50.944,30.477c-4.223,4.223-8.116,8.775-11.646,13.534h-16.841
	c5.218-8.505,11.417-16.389,18.524-23.495c13.915-13.905,30.328-24.133,48.821-30.437c8.085,1.193,15.962,3.541,23.577,7.021
	C247.215,208.194,243.376,209.156,239.604,210.302z M171.628,223.745c-9.099,9.098-16.82,19.378-23.022,30.567h-19.36
	c10.074-17.766,23.654-32.13,39.506-41.711c10.834-6.568,22.295-10.698,34.2-12.341
	C191.529,206.483,181.047,214.332,171.628,223.745z M277.139,167.514c1.522,0.856,3.035,1.733,4.525,2.653l-4.074,12.557
	c-1.164-0.693-2.34-1.366-3.527-2.021L277.139,167.514z M264.872,176.081c-1.123-0.508-2.251-0.998-3.384-1.47l25.645-146.296
	l10.37,7.875L264.872,176.081z M267.708,188.609c19.374,10.333,35.757,26.148,47.392,45.746l6.636,14.256v5.701h-9.93
	c-11.087-21.066-27.213-39.082-45.694-50.262c-15.983-9.69-33.234-14.604-51.271-14.604s-35.288,4.914-51.266,14.601
	c-18.475,11.166-34.352,29.189-45.446,50.266h-10.189v-6.276l6.621-13.657c11.646-19.622,28.037-35.447,47.414-45.771
	c16.499-8.818,34.285-13.29,52.865-13.29S251.206,179.789,267.708,188.609z M321.735,165.103v27.258
	c-4.764-5.906-10.031-11.4-15.73-16.467l4.177-10.791H321.735z M336.09,34.826l12.129,4.309l-3.653,9.438l-10.378-7.882
	L336.09,34.826z M302.795,13.502l-2.804,12.021l-10.916-8.29l1.105-6.306L302.795,13.502z M214.837,151.223
	c13.53,0,26.797,2.109,39.502,6.258l-2.386,13.612c-11.936-3.837-24.351-5.776-37.113-5.776c-20.242,0-39.614,4.868-57.573,14.467
	c-19.914,10.611-36.894,26.564-49.327,46.275v-16.65c12.415-19.172,29.704-34.662,50.109-44.834
	C175.767,155.716,194.874,151.223,214.837,151.223z M137.44,165.103c-11.108,7.584-21.04,16.782-29.501,27.278v-27.278H137.44z
	 M62.335,124.663l35.604,37.438v81.815L62.335,194.86V124.663z M302.718,419.677H126.96l-18.393-155.358h212.542L302.718,419.677z
	 M367.343,194.86l-35.607,49.059v-81.816l35.607-37.44V194.86z"/>
</svg>
