<?xml version="1.0" encoding="utf-8"?>
<!-- Generator: Adobe Illustrator 17.1.0, SVG Export Plug-In . SVG Version: 6.00 Build 0)  -->
<!DOCTYPE svg PUBLIC "-//W3C//DTD SVG 1.1//EN" "http://www.w3.org/Graphics/SVG/1.1/DTD/svg11.dtd">
<svg version="1.1" id="Layer_1" xmlns="http://www.w3.org/2000/svg" xmlns:xlink="http://www.w3.org/1999/xlink" x="0px" y="0px"
	 viewBox="0 0 960 560" enable-background="new 0 0 960 560" xml:space="preserve">
<circle fill="#FFFFFF" cx="480" cy="280" r="280"/>
<g>
	<path fill="#72B9E0" d="M480,437L258.4,215.4l50.9-50.9l85.3,85.3l84.9-84.9l0,0l0,0l7,7l78.3,78.3l85.7-85.7l50.9,50.9L567,350
		l0,0L480,437z M286.2,215.4L480,409.2l58.8-58.8L516,327.2l-36,36l-18.6-18.6l36-36l-22.8-22.8l-36,36l-21.1-21.1l62.5-62.5
		l62.5,62.5l0,0l22.8,22.8l108.5-108.1l-22.8-22.8l-85.7,85.7L480,192.6l-85.3,85.3l-85.7-85.3L286.2,215.4z"/>
</g>
</svg>
