<?xml version="1.0" encoding="utf-8"?>
<!-- Generator: Adobe Illustrator 14.0.0, SVG Export Plug-In . SVG Version: 6.00 Build 43363)  -->
<!DOCTYPE svg PUBLIC "-//W3C//DTD SVG 1.1//EN" "http://www.w3.org/Graphics/SVG/1.1/DTD/svg11.dtd">
<svg version="1.1" id="Layer_1" xmlns="http://www.w3.org/2000/svg" xmlns:xlink="http://www.w3.org/1999/xlink" x="0px" y="0px"
	 width="778.553px" height="1545.895px" viewBox="0 0 778.553 1545.895" enable-background="new 0 0 778.553 1545.895"
	 xml:space="preserve">
<path fill="#C1E3CC" d="M533.138,1053.129l-0.96-2.039c-5.255-11.203-18.399-16.983-30.265-17.052
	c-0.258-0.03-0.623-0.02-0.831-0.237c-0.168-0.307-0.307-0.643-0.386-0.99c-2.747-8.377-9.743-14.519-17.765-17.755l-4.865-1.962
	c-1.852-0.747-2.048-2.133-0.297-3.146l4.072-2.354l37.025,14.915c0.752,0.307,1.633-0.069,1.94-0.822l3.583-8.907
	c0.307-0.762-0.059-1.623-0.822-1.93l-24.43-9.848l0,0c-1.485-0.599-2.098-2.182-0.425-3.149c0,0,0,0,0,0l6.071-3.51l17.369,7.007
	c0.752,0.297,1.634-0.079,1.94-0.831l3.582-8.907c0.307-0.762-0.06-1.623-0.822-1.93l-15.647-6.304l2.355-16.706
	c0.119-0.812-0.446-1.564-1.257-1.683l-9.521-1.336c-0.812-0.119-1.564,0.445-1.673,1.257l-2.623,18.546l-6.483,3.749
	c-1.925,1.112-2.48,0.52-2.167-1.712l3.75-26.551c0.109-0.812-0.455-1.564-1.267-1.682l-9.511-1.336
	c-0.811-0.119-1.563,0.445-1.682,1.257l-5.572,39.528l-4.968,2.868c-1.533,0.884-2.024,0.055-1.826-1.356l0.875-6.173
	c0.723-5.124,0.399-10.447-1.3-15.355c-0.845-2.443-2.033-4.766-3.552-6.859c-0.641-0.884-1.369-1.667-2.08-2.49
	c-0.708-0.818,0.539-2.25,0.907-2.987c5.034-10.065,6.108-23.382-0.587-32.987l-1.286-1.841l-0.01,0.01
	c-0.247-0.366-0.643-0.594-1.089-0.633l0.01-0.01l-2.247-0.188c-12.332-1.069-23.921,7.452-29.909,17.676
	c-0.936,1.299-5.428-0.119-6.997-0.119h-0.04c-6.914,0-13.51,2.851-18.893,7.067l-4.907,3.833c0,0-0.001,0-0.001,0
	c-1.128,0.882-2.098,0.588-2.098-1.045v-5.58l31.442-24.604c0.633-0.504,0.752-1.445,0.248-2.088l-5.918-7.562
	c-0.505-0.653-1.435-0.762-2.078-0.257l-21.367,16.717l0,0c-1.675,1.31-2.326,0.647-2.326-1.58v-7.121l14.756-11.54
	c0.634-0.505,0.752-1.455,0.248-2.088l-5.918-7.562c-0.504-0.653-1.435-0.762-2.088-0.257l-13.281,10.402l-13.292-10.402
	c-0.643-0.504-1.573-0.396-2.078,0.257l-5.918,7.562c-0.505,0.633-0.386,1.583,0.248,2.088l14.756,11.54v7.121
	c0,2.102-0.88,2.709-2.586,1.376l-21.107-16.514c-0.643-0.505-1.573-0.396-2.078,0.257l-5.918,7.562
	c-0.504,0.643-0.385,1.583,0.248,2.088l31.442,24.604v5.58c0,1.632-0.723,2.119-2.253,0.924l-4.754-3.712
	c-5.384-4.216-11.906-7.057-18.824-7.067h-0.02c0,0-0.01,0-0.02,0h-0.01c-1.809,0-3.614,0.188-5.384,0.564
	c-0.307,0.079-0.614,0.138-0.93,0.158c-0.159,0-0.188-0.01-0.267-0.06c-0.208-0.118-0.346-0.366-0.475-0.544
	c-5.988-10.224-17.587-18.755-29.908-17.676h-0.02l-2.306,0.228c-0.436,0.04-0.812,0.257-1.069,0.614l-1.356,1.89l-0.01,0.02
	c-3.837,5.512-5.137,12.374-4.558,18.989c0.293,3.34,1.046,6.639,2.19,9.79c0.702,1.934,3.841,5.956,2.309,7.623v0.009
	c-5.938,6.621-7.709,15.637-6.482,24.268l0.745,5.216c0.284,1.99-0.629,2.925-2.065,2.099l-4.589-2.643l-5.631-39.519
	c-0.118-0.812-0.861-1.376-1.673-1.257l-9.521,1.346c-0.792,0.119-1.366,0.881-1.257,1.683l3.776,26.549
	c0.241,1.696-0.177,2.862-2.063,1.776l-6.592-3.801l-2.633-18.546c-0.119-0.812-0.871-1.376-1.682-1.257l-9.511,1.356
	c-0.811,0.108-1.375,0.86-1.257,1.672l2.376,16.706l-15.647,6.324c-0.742,0.307-1.119,1.187-0.822,1.93l3.603,8.907
	c0.306,0.752,1.187,1.128,1.929,0.822l17.369-7.017l6.162,3.553c1.862,1.073,1.64,2.233,0,2.896l0,0l-24.926,10.069
	c-0.752,0.307-1.128,1.188-0.821,1.94l3.602,8.907c0.297,0.742,1.178,1.118,1.93,0.821l37.005-14.964l4.605,2.652
	c1.767,1.018,1.412,1.938-0.097,2.551l-5.577,2.259c-8.073,3.265-14.986,9.339-17.745,17.775v0.01
	c-0.086,0.305-0.195,0.603-0.327,0.891c-0.079,0.128-0.109,0.138-0.188,0.188c-0.98,0.532-2.609,0.188-3.688,0.28
	c-1.661,0.143-3.315,0.39-4.944,0.744c-3.52,0.767-6.944,2.014-10.103,3.748c-5.166,2.836-9.703,7.069-12.222,12.458l-0.95,2.039
	h0.01c-0.099,0.209-0.148,0.419-0.148,0.629s0.049,0.418,0.148,0.628h-0.01l0.96,2.039c2.527,5.387,7.066,9.614,12.24,12.441
	c2.869,1.568,5.962,2.731,9.137,3.503c1.618,0.394,3.263,0.681,4.918,0.863c1.192,0.131,3.938-0.472,4.811,0.462
	c1.018,1.184,1.345,3.591,2.104,5.015c1.077,2.023,2.427,3.896,3.981,5.579c3.33,3.605,7.548,6.32,12.086,8.15l5.166,2.078
	c1.351,0.543,2.072,1.818,0.359,2.807l0,0l-4.445,2.566l-37.035-14.895c-0.762-0.307-1.623,0.06-1.93,0.821l-3.583,8.917
	c-0.307,0.752,0.069,1.633,0.822,1.93l24.798,9.972v0c1.703,0.685,2.269,1.734,0.007,3.044l-6.011,3.472l-17.369-6.987
	c-0.762-0.307-1.633,0.06-1.93,0.822l-3.592,8.917c-0.297,0.752,0.079,1.633,0.822,1.93l15.657,6.294l-2.345,16.706
	c-0.119,0.802,0.465,1.563,1.257,1.683l9.521,1.336c0.802,0.109,1.564-0.465,1.673-1.267l2.613-18.546l6.06-3.504
	c1.819-1.052,2.948-1.067,2.629,1.201l-3.77,26.818c-0.119,0.801,0.455,1.563,1.257,1.682l9.52,1.336
	c0.802,0.108,1.564-0.465,1.673-1.267l5.562-39.529l4.319-2.497c2.07-1.197,2.655-0.357,2.408,1.409l-0.809,5.75
	c-1.229,8.785,0.69,18.013,6.868,24.633c0.188,0.168,0.307,0.366,0.337,0.604c0,0.755-0.853,1.814-1.171,2.449
	c-0.751,1.5-1.403,3.048-1.953,4.633c-1.135,3.273-1.851,6.702-2.063,10.162c-0.387,6.322,0.943,12.941,4.623,18.187l1.287,1.851
	c0.257,0.356,0.653,0.583,1.098,0.623l2.237,0.188c12.341,1.049,23.921-7.452,29.908-17.706c0.228-0.356,0.386-0.484,0.466-0.534
	c0.635-0.336,2.2,0.3,2.852,0.395c1.225,0.178,2.462,0.268,3.7,0.268h0.01h0.02c6.938,0,13.48-2.851,18.873-7.077l4.279-3.352
	c1.535-1.201,2.72-1.168,2.722,0.809l0.006,5.334l-31.423,24.613c-0.643,0.515-0.762,1.445-0.257,2.088l5.928,7.561
	c0.495,0.644,1.445,0.752,2.088,0.257l21.482-16.838c0.777-0.608,2.191-0.5,2.191,1.355v7.447l-14.737,11.56
	c-0.653,0.504-0.762,1.435-0.258,2.079l5.928,7.561c0.495,0.644,1.445,0.752,2.078,0.257l13.282-10.412l13.291,10.392
	c0.644,0.504,1.594,0.386,2.089-0.248l5.918-7.571c0.504-0.653,0.386-1.583-0.258-2.088l-14.756-11.53l-0.007-7.448
	c-0.001-1.731,0.875-2.386,2.32-1.257l21.381,16.702c0.633,0.505,1.584,0.386,2.079-0.257l5.918-7.562
	c0.505-0.653,0.386-1.583-0.258-2.088l-31.452-24.584v-5.324c0-1.855,1.13-2.065,2.02-1.37l4.977,3.893
	c5.404,4.216,11.936,7.057,18.864,7.057h0.02h0.01c2.129,0,4.176-0.732,6.304-0.732c0.158,0.01,0.188,0.02,0.277,0.06
	c0.773,0.551,1.238,1.832,1.762,2.606c0.929,1.374,1.947,2.688,3.042,3.933c2.213,2.518,4.747,4.764,7.542,6.618
	c5.303,3.518,11.635,5.593,18.038,5.053l2.247-0.188v-0.02c0.438-0.039,0.834-0.255,1.089-0.614l1.286-1.841
	c6.295-9.041,5.693-21.443,1.421-31.182c-0.458-1.043-0.984-1.998-1.558-2.976c-0.834-1.421-0.084-1.865,0.824-2.956
	c1.742-2.095,3.134-4.47,4.143-7c2.087-5.234,2.522-11.013,1.742-16.565l-0.747-5.27c-0.338-2.39,0.767-2.798,2.349-1.887
	l4.315,2.486l5.602,39.528c0.119,0.802,0.881,1.375,1.682,1.257l9.511-1.346c0.802-0.119,1.375-0.88,1.257-1.682l-3.708-26.179
	c-0.284-2.006,0.599-2.951,1.98-2.157l6.626,3.821l2.623,18.537c0.119,0.802,0.881,1.376,1.683,1.267l9.511-1.355
	c0.802-0.109,1.376-0.871,1.257-1.673l-2.365-16.706l15.646-6.314c0.752-0.307,1.128-1.178,0.822-1.93l-3.593-8.907
	c-0.307-0.762-1.177-1.128-1.94-0.821l-17.359,7.006l-6.575-3.791c-1.501-0.865-1.511-1.878-0.002-2.488l25.352-10.229
	c0.752-0.307,1.118-1.188,0.821-1.939l-3.593-8.907c-0.316-0.762-1.178-1.128-1.94-0.822l-37.014,14.935l-3.526-2.031
	c-2.529-1.457-2.42-2.586-0.508-3.359l5.112-2.062c4.222-1.704,8.183-4.154,11.394-7.401c1.606-1.624,3.015-3.444,4.154-5.425
	c0.623-1.078,1.168-2.2,1.63-3.355c0.24-0.6,0.48-2.323,1.091-2.682c0.208-0.109,0.485-0.119,0.703-0.128
	c11.866-0.08,25.009-5.869,30.255-17.083l0.96-2.039c0.092-0.209,0.138-0.418,0.138-0.628
	C533.276,1053.549,533.23,1053.339,533.138,1053.129 M289.882,1036.651l0.02-0.139c1.699-4.699,5.774-7.791,10.263-9.639h0.02
	l0.02-0.01l7.092-2.873c1.617-0.655,2.507,0.051,2.249,1.534l-1.335,7.692c-0.812,4.671-2.87,9.303-6.957,11.975
	c-1.824-1.517-3.207-3.467-5.127-4.924c-1.877-1.425-3.935-2.61-6.106-3.528l-0.02-0.01l-0.109-0.059l-0.01-0.01V1036.651
	 M284.557,1059.681c-8.119,3.148-19.319,1.005-25.059-5.77c7.512-8.917,25.485-10.392,32.393-0.02
	C290.109,1056.563,287.546,1058.523,284.557,1059.681 M307.186,1083.691l-6.933-2.791l-0.02-0.01l-0.02-0.01
	c-4.483-1.821-8.61-4.918-10.282-9.619l-0.02-0.139c0.049-0.03,0.089-0.06,0.139-0.089v0.009c2.156-0.9,4.208-2.105,6.068-3.517
	c1.924-1.46,3.296-3.474,5.145-4.955c4.129,2.48,6.182,7.416,6.978,11.956l1.311,7.43
	C309.784,1083.276,309.04,1084.438,307.186,1083.691 M324.343,941.403c11.447,2.068,21.905,16.89,16.211,28.097
	C327.975,968.857,320.364,952.379,324.343,941.403 M321.136,984.702c0.307-2.989,1.366-5.879,3.325-8.185l0.119-0.099l0.119,0.069
	c0.01,0.01,0.02,0.01,0.02,0.01v0.01c0.208,0.148,0.416,0.297,0.624,0.455v-0.009c1.831,1.304,3.816,2.392,5.903,3.227
	c2.082,0.833,4.365,0.999,6.418,1.801c-0.236,4.86-3.241,8.992-6.859,12.015l-5.423,4.548c-1.819,1.526-2.775,1.05-3.093-1.191
	l-1.005-7.088v-0.01l-0.01-0.02C321.027,988.403,320.948,986.543,321.136,984.702 M322.195,1127.119
	c-1.15-3.054-1.252-6.427-0.802-9.63v-0.02v-0.02l0.871-6.179c0.44-3.112,1.729-3.341,3.138-2.163l5.502,4.601
	c3.635,3.035,6.608,7.132,6.888,12.005c-2.033,0.788-4.284,0.965-6.343,1.784c-2.351,0.935-4.572,2.195-6.592,3.718
	c0,0-0.01,0.01-0.02,0.01l-0.119,0.069c-0.02,0-0.049-0.029-0.119-0.089C323.568,1129.984,322.769,1128.61,322.195,1127.119
	 M338,1156.849c-3.187,4.443-8.017,8.382-13.509,9.382c-3.969-10.957,3.681-27.267,16.152-28.058
	C343.691,1144.329,341.831,1151.495,338,1156.849 M353.034,972.341c1.544-4.157,2.019-8.669,1.485-13.064c0-0.01,0-0.01,0-0.02
	l-0.01-0.079l0.01-0.06l0.01-0.01l0.128-0.04c4.915-0.902,9.653,1.118,13.48,4.088l0.03,0.02l5.304,4.15
	c1.299,1.016,1.938,2.752,0.005,3.461l-6.834,2.494c-4.444,1.633-9.481,2.157-13.846-0.05
	C352.846,972.915,352.945,972.647,353.034,972.341 M373.984,1139.928l-5.768,4.52l-0.03,0.02c-3.16,2.445-6.953,4.315-11.025,4.315
	h-0.01c-0.891,0-1.703-0.089-2.445-0.228c-0.069-0.02-0.118-0.03-0.129-0.049h-0.01v-0.06v-0.069c0-0.01,0-0.02,0-0.03h0.01
	c0.248-2.127,0.278-4.275,0.055-6.405c-0.276-2.634-1.342-4.987-1.787-7.549c4.365-2.197,9.382-1.683,13.846-0.06l6.865,2.504
	C375.189,1137.435,375.963,1138.378,373.984,1139.928 M404.474,967.802l5.913-4.626l0.01-0.01l0.02-0.02
	c3.83-2.959,8.581-4.988,13.49-4.078c0.069,0.02,0.109,0.04,0.129,0.05l0.01,0.06l-0.01,0.089v0.01
	c-0.271,2.119-0.287,4.272-0.067,6.396c0.27,2.611,1.377,4.984,1.789,7.558c-4.364,2.207-9.392,1.683-13.845,0.05l-7.07-2.58
	c0,0-0.001,0-0.001,0C403.498,970.212,402.934,969.007,404.474,967.802 M425.568,1135.244c-1.454,3.909-1.959,8.145-1.564,12.292
	v0.01c0.03,0.258,0.05,0.505,0.089,0.762c0,0,0,0.01,0,0.02v0.079v0.06l-0.02,0.01l-0.119,0.04
	c-4.908,0.914-9.655-1.127-13.489-4.078l-0.01-0.01l-0.01-0.01l-5.213-4.074c-1.991-1.556-1.797-2.92-0.002-3.577l6.729-2.455
	c4.444-1.633,9.491-2.167,13.836,0.04C425.747,1134.67,425.657,1134.937,425.568,1135.244 M457.199,990.155v0.02v0.02l-1.138,8.019
	c-0.226,1.594-1.268,1.671-2.276,0.828l-6.106-5.106c-3.632-3.048-6.611-7.145-6.878-12.014c2.029-0.792,4.283-0.961,6.34-1.781
	c2.35-0.938,4.57-2.196,6.595-3.712c0.01-0.01,0.02-0.01,0.02-0.01l0.119-0.079h0.01
	C457.397,979.686,457.81,985.667,457.199,990.155 M440.612,950.786c3.187-4.444,8.026-8.383,13.519-9.373
	c3.959,10.956-3.701,27.266-16.171,28.047C434.911,963.305,436.781,956.13,440.612,950.786 M454.19,1166.162
	c-11.441-2.082-21.715-16.872-16.181-28.048C450.469,1138.906,458.149,1155.186,454.19,1166.162 M457.377,1122.942
	c-0.218,2.167-0.831,4.286-1.92,6.176h0.01c-0.455,0.772-0.94,1.435-1.425,2.009c0,0-0.663-0.287-0.871-0.435l-0.01-0.01
	c-3.394-2.415-7.313-4.088-11.431-4.78c-0.01,0-0.01-0.01-0.01-0.01c-0.416-0.079-0.703-0.168-0.881-0.237
	c0.28-4.872,3.242-8.976,6.878-12.015l5.895-4.942v0c1.589-1.332,2.265-0.844,2.606,1.551l1.011,7.122l0.01,0.04
	C457.486,1119.241,457.565,1121.101,457.377,1122.942 M471.195,1023.886l7.124,2.868l0.02,0.01h0.01
	c4.483,1.831,8.611,4.929,10.283,9.629l0.02,0.148l-0.01,0.01l-0.109,0.06c-0.01,0.01-0.02,0.01-0.02,0.01
	c-2.159,0.895-4.205,2.102-6.064,3.514c-1.926,1.462-3.307,3.474-5.159,4.958c-4.084-2.665-6.148-7.307-6.968-11.966l-1.28-7.297
	C468.659,1023.65,469.577,1023.236,471.195,1023.886 M488.661,1071.013c0,0.02,0,0.06-0.02,0.138
	c-1.692,4.691-5.788,7.795-10.273,9.63l-0.02,0.01l-0.02,0.01l-6.711,2.711c-2.288,0.924-2.826-0.246-2.54-1.889l1.254-7.196
	c0.843-4.779,2.95-9.103,6.958-11.965c0.277,0.218,0.405,0.396,0.653,0.653c2.831,3.415,6.502,6.087,10.58,7.809
	c0.01,0,0.01,0.01,0.02,0.01l0.109,0.059l0.01,0.01V1071.013 M512.869,1058.384c-8.333,4.038-20.605,3.811-26.207-4.612
	c7.087-10.413,24.734-9.111,32.393-0.01C517.421,1055.703,515.234,1057.236,512.869,1058.384"/>
</svg>
